<svg height="384pt" viewBox="0 0 384 384" width="384pt" xmlns="http://www.w3.org/2000/svg"><path d="m192 0c-105.871094 0-192 86.128906-192 192s86.128906 192 192 192 192-86.128906 192-192-86.128906-192-192-192zm125.65625 93.28125c2.03125 2.582031 4.03125 5.191406 5.902344 7.894531 1.050781 1.511719 2.015625 3.082031 3.015625 4.625 1.632812 2.535157 3.21875 5.109375 4.714843 7.742188.949219 1.6875 1.863282 3.402343 2.75 5.121093 1.367188 2.648438 2.664063 5.335938 3.890626 8.0625.789062 1.769532 1.582031 3.539063 2.308593 5.335938 1.160157 2.867188 2.210938 5.792969 3.203125 8.738281.589844 1.734375 1.214844 3.457031 1.742188 5.222657 1.015625 3.367187 1.855468 6.816406 2.648437 10.273437.320313 1.398437.726563 2.765625 1.007813 4.183594.96875 4.808593 1.71875 9.6875 2.238281 14.640625-74.742187-7.890625-134.308594-67.457032-142.199219-142.199219 4.953125.519531 9.832032 1.269531 14.640625 2.238281 1.417969.289063 2.785157.6875 4.183594 1.007813 3.464844.792969 6.90625 1.632812 10.273437 2.648437 1.757813.527344 3.480469 1.160156 5.222657 1.742188 2.945312 1 5.863281 2.042968 8.738281 3.203125 1.796875.726562 3.566406 1.519531 5.335938 2.308593 2.726562 1.226563 5.414062 2.523438 8.0625 3.890626 1.71875.894531 3.433593 1.800781 5.121093 2.75 2.632813 1.488281 5.207031 3.082031 7.742188 4.714843 1.554687.988281 3.113281 1.964844 4.625 3.015625 2.703125 1.871094 5.3125 3.871094 7.894531 5.902344 1.21875.960938 2.472656 1.855469 3.664062 2.847656 7.410157 6.183594 14.242188 13.023438 20.425782 20.425782.992187 1.183593 1.894531 2.445312 2.847656 3.664062zm-157.183594 255.566406c-1.417968-.289062-2.785156-.6875-4.183594-1.007812-3.464843-.792969-6.90625-1.632813-10.273437-2.648438-1.757813-.527344-3.480469-1.160156-5.222656-1.742187-2.945313-1-5.863281-2.042969-8.738281-3.203125-1.796876-.726563-3.566407-1.519532-5.335938-2.308594-2.726562-1.226562-5.414062-2.523438-8.0625-3.890625-1.71875-.894531-3.433594-1.800781-5.121094-2.75-2.632812-1.488281-5.207031-3.082031-7.742187-4.710937-1.554688-.992188-3.113281-1.96875-4.625-3.019532-2.703125-1.871094-5.3125-3.871094-7.894531-5.902344-1.21875-.960937-2.472657-1.855468-3.664063-2.847656-7.410156-6.183594-14.242187-13.023437-20.425781-20.425781-.992188-1.183594-1.886719-2.445313-2.847656-3.664063-2.03125-2.582031-4.03125-5.191406-5.902344-7.894531-1.050782-1.511719-2.019532-3.078125-3.019532-4.625-1.628906-2.535156-3.214843-5.109375-4.710937-7.742187-.949219-1.6875-1.863281-3.402344-2.75-5.121094-1.367187-2.648438-2.664063-5.335938-3.890625-8.0625-.789062-1.769531-1.582031-3.539062-2.308594-5.335938-1.160156-2.867187-2.210937-5.792968-3.203125-8.738281-.589843-1.734375-1.214843-3.453125-1.742187-5.222656-1.015625-3.367187-1.855469-6.816406-2.648438-10.273437-.320312-1.398438-.726562-2.765626-1.007812-4.183594-.96875-4.808594-1.71875-9.6875-2.242188-14.640625 74.746094 7.890625 134.3125 67.457031 142.203125 142.203125-4.953125-.523438-9.832031-1.273438-14.640625-2.242188zm46.75 2.382813c-8.046875-92.503907-81.941406-166.398438-174.445312-174.445313 7.222656-76.089844 67.917968-136.785156 144.007812-144.007812 8.046875 92.503906 81.941406 166.398437 174.445313 174.445312-7.222657 76.089844-67.917969 136.785156-144.007813 144.007813zm0 0"/></svg>