<svg id="Capa_1" enable-background="new 0 0 512 512" height="512" viewBox="0 0 512 512" width="512" xmlns="http://www.w3.org/2000/svg"><g><path d="m472 231c-5.312 0-10.429.84-15.235 2.382-10.168-8.973-21.501-16.193-33.644-21.522 22.99-17.356 37.879-44.901 37.879-75.86 0-52.383-42.617-95-95-95s-95 42.617-95 95c0 25.122 9.806 47.994 25.786 65h-81.572c15.98-17.006 25.786-39.878 25.786-65 0-52.383-42.617-95-95-95s-95 42.617-95 95c0 30.959 14.889 58.504 37.879 75.859-12.142 5.33-23.476 12.549-33.644 21.522-4.806-1.541-9.923-2.381-15.235-2.381-22.056 0-40 17.944-40 40v45c0 6.897 4.661 12.691 11 14.444v125.556c0 8.284 6.716 15 15 15h460c8.284 0 15-6.716 15-15v-125.556c6.339-1.753 11-7.547 11-14.444v-45c0-22.056-17.944-40-40-40zm10 40v30h-10c-11.028 0-20-8.972-20-20s8.972-20 20-20c5.514 0 10 4.486 10 10zm-181-135c0-35.841 29.159-65 65-65s65 29.159 65 65-29.159 65-65 65-65-29.159-65-65zm-155-65c35.841 0 65 29.159 65 65s-29.159 65-65 65-65-29.159-65-65 29.159-65 65-65zm-116 200c0-5.514 4.486-10 10-10 11.028 0 20 8.972 20 20s-8.972 20-20 20h-10zm11 59.975c27.109-.536 49-22.74 49-49.975 0-11.011-3.585-21.196-9.639-29.465 17.344-13.326 38.41-20.535 60.639-20.535 55.14 0 100 44.86 100 100v110h-130v-65c0-8.284-6.716-15-15-15s-15 6.716-15 15v65h-40zm390 110.025v-65c0-8.284-6.716-15-15-15s-15 6.716-15 15v65h-130v-110c0-40.167-18.314-76.135-47.028-100h147.028c22.229 0 43.295 7.209 60.639 20.535-6.054 8.269-9.639 18.454-9.639 29.465 0 27.235 21.891 49.438 49 49.975v110.025z"/></g></svg>